<?xml version="1.0" encoding="UTF-8"?>
<svg id="Layer_2" data-name="Layer 2" xmlns="http://www.w3.org/2000/svg" viewBox="0 0 1901.48 514.16">
  <defs>
    <style>
      .cls-1 {
        fill: #c1c9f1;
      }

      .cls-1, .cls-2, .cls-3, .cls-4, .cls-5, .cls-6, .cls-7, .cls-8, .cls-9, .cls-10, .cls-11, .cls-12, .cls-13, .cls-14, .cls-15 {
        stroke: #fff;
      }

      .cls-1, .cls-3, .cls-4, .cls-5, .cls-6, .cls-7, .cls-8, .cls-10, .cls-11, .cls-12, .cls-13, .cls-14, .cls-15 {
        stroke-linecap: round;
        stroke-linejoin: round;
        stroke-width: 2.53px;
      }

      .cls-2, .cls-5 {
        fill: #b265e7;
      }

      .cls-2, .cls-9 {
        stroke-miterlimit: 10;
        stroke-width: 2px;
      }

      .cls-3 {
        fill: #6179f1;
      }

      .cls-16 {
        fill: #333;
      }

      .cls-4, .cls-17, .cls-9 {
        fill: #3a58ee;
      }

      .cls-6 {
        fill: #758aee;
      }

      .cls-7 {
        fill: #8c09e7;
      }

      .cls-8 {
        fill: #3151f1;
      }

      .cls-10 {
        fill: #c184ec;
      }

      .cls-11 {
        fill: #522174;
      }

      .cls-12 {
        fill: #e0c1f5;
      }

      .cls-13 {
        fill: #163aee;
      }

      .cls-14 {
        fill: #91a1f1;
      }

      .cls-15 {
        fill: #d1a3f1;
      }
    </style>
  </defs>
  <g id="Layer_1-2" data-name="Layer 1">
    <g>
      <g>
        <path class="cls-16" d="M1214.65,484.95v-101.85h13.79v101.85h-13.79Zm9.25,0v-12.03h30.82c5.87,0,10.47-1.74,13.8-5.21,3.33-3.47,4.99-7.65,4.99-12.55,0-3.32-.73-6.33-2.2-9.03-1.47-2.69-3.6-4.82-6.38-6.38-2.79-1.56-6.04-2.35-9.76-2.35h-31.26v-12.03h29.21c4.89,0,8.78-1.3,11.67-3.89,2.89-2.59,4.33-6.33,4.33-11.23s-1.52-8.63-4.55-11.23c-3.03-2.59-7.04-3.89-12.03-3.89h-28.62v-12.03h28.91c6.65,0,12.2,1.2,16.66,3.6,4.45,2.4,7.83,5.55,10.13,9.47,2.3,3.91,3.45,8.22,3.45,12.91,0,5.48-1.49,10.27-4.48,14.38-2.99,4.11-7.36,7.34-13.14,9.69l1.17-4.4c6.55,2.35,11.67,5.9,15.34,10.64,3.67,4.75,5.5,10.35,5.5,16.8,0,5.38-1.32,10.23-3.96,14.53-2.64,4.31-6.44,7.76-11.37,10.35-4.94,2.59-10.98,3.89-18.12,3.89h-30.09Z"/>
        <path class="cls-16" d="M1326.62,485.54l-30.23-70.3h14.68l22.45,55.04h-4.7l23.63-55.04h14.68l-32.58,70.3h-7.93Zm-19.96,28.62l20.55-42.12,7.34,13.5-13.21,28.62h-14.68Z"/>
        <path class="cls-16" d="M1404.41,395.72v-12.62h82.92v12.62h-82.92Zm34.64,89.23v-98.92h13.8v98.92h-13.8Z"/>
        <path class="cls-16" d="M1514.48,486.42c-6.95,0-13.21-1.59-18.79-4.77-5.58-3.18-9.98-7.51-13.21-12.99-3.23-5.48-4.84-11.69-4.84-18.64s1.59-13.01,4.77-18.49c3.18-5.48,7.48-9.81,12.92-12.99,5.43-3.18,11.52-4.77,18.27-4.77s12.16,1.47,17.1,4.4c4.94,2.94,8.81,7,11.59,12.18,2.79,5.19,4.18,11.06,4.18,17.61,0,.98-.05,2.03-.15,3.16-.1,1.13-.29,2.42-.59,3.89h-58.85v-11.01h51.81l-4.84,4.26c0-4.7-.83-8.68-2.49-11.96-1.67-3.28-4.01-5.82-7.05-7.63-3.03-1.81-6.7-2.72-11.01-2.72s-8.46,.98-11.89,2.94c-3.43,1.96-6.07,4.7-7.93,8.22-1.86,3.52-2.79,7.68-2.79,12.47s.98,9.17,2.93,12.84c1.96,3.67,4.74,6.51,8.37,8.51,3.62,2.01,7.78,3.01,12.47,3.01,3.91,0,7.51-.68,10.79-2.05,3.28-1.37,6.09-3.42,8.44-6.16l8.51,8.66c-3.33,3.91-7.41,6.9-12.25,8.95-4.84,2.05-10,3.08-15.48,3.08Z"/>
        <path class="cls-16" d="M1560.85,484.95v-104.79h13.21v104.79h-13.21Z"/>
        <path class="cls-16" d="M1625.72,486.42c-6.95,0-13.21-1.59-18.79-4.77-5.58-3.18-9.98-7.51-13.21-12.99-3.23-5.48-4.84-11.69-4.84-18.64s1.59-13.01,4.77-18.49c3.18-5.48,7.48-9.81,12.92-12.99,5.43-3.18,11.52-4.77,18.27-4.77s12.16,1.47,17.1,4.4c4.94,2.94,8.81,7,11.59,12.18,2.79,5.19,4.18,11.06,4.18,17.61,0,.98-.05,2.03-.15,3.16-.1,1.13-.29,2.42-.59,3.89h-58.85v-11.01h51.81l-4.84,4.26c0-4.7-.83-8.68-2.49-11.96-1.67-3.28-4.01-5.82-7.05-7.63-3.03-1.81-6.7-2.72-11.01-2.72s-8.46,.98-11.89,2.94c-3.43,1.96-6.07,4.7-7.93,8.22-1.86,3.52-2.79,7.68-2.79,12.47s.98,9.17,2.93,12.84c1.96,3.67,4.74,6.51,8.37,8.51,3.62,2.01,7.78,3.01,12.47,3.01,3.91,0,7.51-.68,10.79-2.05,3.28-1.37,6.09-3.42,8.44-6.16l8.51,8.66c-3.33,3.91-7.41,6.9-12.25,8.95-4.84,2.05-10,3.08-15.48,3.08Z"/>
        <path class="cls-16" d="M1663.59,427.28v-12.03h47.55v12.03h-47.55Zm17.17,57.68v-98.92h13.21v98.92h-13.21Z"/>
        <path class="cls-16" d="M1751.49,486.42c-6.36,0-12.13-1.59-17.32-4.77-5.19-3.18-9.27-7.51-12.25-12.99-2.99-5.48-4.48-11.64-4.48-18.49s1.49-13.01,4.48-18.49c2.98-5.48,7.04-9.83,12.18-13.06,5.14-3.23,10.93-4.84,17.39-4.84,5.28,0,10,1.1,14.16,3.3,4.16,2.2,7.51,5.23,10.05,9.1,2.54,3.87,3.96,8.34,4.26,13.43v20.99c-.29,4.99-1.69,9.44-4.18,13.35-2.49,3.91-5.82,6.97-9.98,9.17-4.16,2.2-8.93,3.3-14.31,3.3Zm2.2-12.48c6.55,0,11.84-2.22,15.85-6.68,4.01-4.45,6.02-10.15,6.02-17.1,0-4.79-.91-8.97-2.71-12.55-1.81-3.57-4.38-6.36-7.7-8.37-3.33-2-7.19-3.01-11.59-3.01s-8.29,1.03-11.67,3.08c-3.38,2.05-6.02,4.87-7.93,8.44-1.91,3.57-2.86,7.66-2.86,12.25s.95,8.83,2.86,12.4c1.91,3.57,4.57,6.38,8,8.44,3.42,2.05,7.34,3.08,11.74,3.08Zm20.99,11.01v-18.79l2.49-17.02-2.49-16.88v-17.02h13.36v69.71h-13.36Z"/>
        <path class="cls-16" d="M1807.26,484.95v-104.79h13.21v104.79h-13.21Z"/>
        <path class="cls-16" d="M1839.84,484.95v-104.79h13.21v104.79h-13.21Zm44.61,0l-32.58-35.66,32.29-34.05h16l-35.96,37.57,.59-7.63,36.69,39.77h-17.02Z"/>
      </g>
      <g>
        <polygon class="cls-5" points="329.16 265.22 329.16 156.69 235.17 210.95 329.16 265.22 329.16 265.22"/>
        <polygon class="cls-10" points="329.16 265.22 329.16 156.69 423.15 210.95 329.16 265.22 329.16 265.22"/>
        <polygon class="cls-11" points="329.16 415.75 329.16 265.22 423.15 361.49 329.16 415.75 329.16 415.75"/>
        <polygon class="cls-12" points="423.15 210.96 423.16 102.43 517.14 156.69 423.16 210.95 423.15 210.96"/>
        <polygon class="cls-15" points="423.15 210.96 423.15 102.43 329.16 156.69 423.15 210.95 423.15 210.96"/>
        <polygon class="cls-7" points="423.15 361.49 423.15 210.96 329.16 265.22 423.15 361.49 423.15 361.49"/>
        <polygon class="cls-3" points="162.41 361.49 162.41 210.95 292.78 286.22 162.41 361.48 162.41 361.49"/>
        <polygon class="cls-13" points="292.78 436.75 292.78 286.22 162.41 361.49 292.78 436.75 292.78 436.75"/>
        <polygon class="cls-3" points="162.41 512.02 162.41 361.49 292.78 436.75 162.41 512.02 162.41 512.02"/>
        <polygon class="cls-1" points="162.41 210.95 162.41 60.42 292.78 135.69 162.41 210.95 162.41 210.95"/>
        <polygon class="cls-4" points="162.41 361.49 162.41 210.95 32.04 286.22 162.41 361.48 162.41 361.49"/>
        <polygon class="cls-8" points="162.41 512.02 162.41 361.49 32.04 436.75 162.41 512.02 162.41 512.02"/>
        <polygon class="cls-14" points="162.41 210.95 162.41 60.42 32.04 135.69 162.41 210.95 162.41 210.95"/>
        <polygon class="cls-6" points="32.04 286.22 32.05 135.69 162.41 210.95 32.05 286.22 32.04 286.22"/>
        <polygon class="cls-9" points="264.1 72.8 264.1 1.73 202.56 37.26 264.1 72.8 264.1 72.8"/>
        <polygon class="cls-9" points="1 402.03 1 320.95 71.22 361.49 1 402.03 1 402.03"/>
        <polygon class="cls-2" points="476.59 330.64 476.59 241.81 553.52 286.22 476.59 330.64 476.59 330.64"/>
      </g>
      <g>
        <path class="cls-16" d="M760.3,323.42c-5.84,9.84-14.49,17.74-25.95,23.68-11.47,5.95-25.42,8.92-41.85,8.92s-30.72-2.76-43.48-8.27c-12.76-5.52-22.98-13.46-30.66-23.85-7.68-10.38-12.06-22.49-13.14-36.34h48.67c1.08,9.3,4.81,17.03,11.19,23.2,6.38,6.16,14.87,9.25,25.47,9.25,9.52,0,16.82-2.54,21.9-7.62,5.08-5.08,7.62-11.62,7.62-19.63,0-7.14-2.06-13.03-6.16-17.68-4.11-4.65-9.3-8.38-15.57-11.19-6.28-2.81-14.92-6.05-25.95-9.73-14.28-4.75-25.96-9.46-35.04-14.11-9.08-4.65-16.82-11.41-23.2-20.28-6.38-8.87-9.57-20.44-9.57-34.72,0-19.68,7.08-35.2,21.25-46.56,14.16-11.36,32.93-17.03,56.29-17.03s43.53,5.84,57.91,17.52c14.38,11.68,22.55,27.25,24.5,46.72h-49.32c-1.3-8.22-4.76-14.98-10.38-20.28-5.63-5.3-13.3-7.95-23.04-7.95-8.44,0-15.25,2.22-20.44,6.65-5.19,4.44-7.79,10.87-7.79,19.3,0,6.71,2,12.28,6,16.71,4,4.44,9.08,8.06,15.25,10.87,6.16,2.81,14.54,5.95,25.14,9.41,14.71,5.19,26.66,10.06,35.85,14.6,9.19,4.54,17.03,11.36,23.52,20.44,6.49,9.08,9.73,20.98,9.73,35.69,0,11.68-2.92,22.44-8.76,32.28Z"/>
        <path class="cls-16" d="M965.22,272.65h-131.73c.65,16.01,4.97,27.8,12.98,35.37,8,7.57,17.95,11.36,29.85,11.36,10.6,0,19.41-2.6,26.44-7.79,7.03-5.19,11.52-12.22,13.46-21.09h48.34c-2.38,12.55-7.46,23.8-15.25,33.74-7.79,9.95-17.79,17.74-30.01,23.36-12.22,5.63-25.79,8.44-40.72,8.44-17.52,0-33.09-3.73-46.72-11.19-13.63-7.46-24.23-18.11-31.8-31.96-7.57-13.84-11.36-30.17-11.36-48.99s3.78-35.2,11.36-49.15c7.57-13.95,18.17-24.6,31.8-31.96,13.63-7.35,29.2-11.03,46.72-11.03s33.26,3.68,46.56,11.03c13.3,7.36,23.57,17.47,30.82,30.33,7.24,12.87,10.87,27.53,10.87,43.96,0,4.54-.54,9.73-1.62,15.57Zm-55.97-53.53c-8.33-7.57-18.55-11.36-30.66-11.36s-22.71,3.79-31.15,11.36c-8.44,7.57-13.09,18.71-13.95,33.42h87.28c.65-14.71-3.19-25.84-11.52-33.42Z"/>
        <path class="cls-16" d="M1040.91,113.67v240.09h-45.75V113.67h45.75Z"/>
        <path class="cls-16" d="M1141.03,148.71c-5.41,4.76-8.11,13.09-8.11,24.98v.32h36.34v38.61h-36.34v141.13h-45.75V212.62h-23.03v-38.61h23.03v-4.22c0-21.41,6.11-37.9,18.33-49.48,12.22-11.57,30.33-17.36,54.34-17.36,4.11,0,7.24,.11,9.41,.32v39.58c-13.41-.86-22.82,1.08-28.23,5.84Z"/>
      </g>
      <g>
        <path class="cls-17" d="M1401.93,102.35v39.85h-69.38v211.34h-50.17V142.2h-69.02v-39.85h188.57Z"/>
        <path class="cls-17" d="M1581,264.59h-144.45c.71,17.56,5.45,30.48,14.23,38.78,8.77,8.31,19.68,12.45,32.73,12.45,11.62,0,21.29-2.85,29-8.54,7.71-5.69,12.63-13.4,14.76-23.13h53.01c-2.61,13.76-8.18,26.1-16.72,37-8.54,10.91-19.51,19.45-32.91,25.62-13.4,6.17-28.29,9.25-44.65,9.25-19.21,0-36.29-4.09-51.23-12.27-14.94-8.18-26.57-19.86-34.87-35.04-8.3-15.18-12.45-33.09-12.45-53.72s4.15-38.6,12.45-53.9c8.3-15.3,19.92-26.98,34.87-35.04,14.94-8.06,32.02-12.1,51.23-12.1s36.47,4.04,51.06,12.1c14.59,8.07,25.85,19.16,33.8,33.27,7.94,14.11,11.92,30.19,11.92,48.21,0,4.98-.59,10.67-1.78,17.08Zm-61.37-58.7c-9.13-8.3-20.34-12.45-33.62-12.45s-24.9,4.15-34.15,12.45c-9.25,8.3-14.35,20.52-15.3,36.65h95.71c.71-16.13-3.5-28.34-12.63-36.65Z"/>
        <path class="cls-17" d="M1736.51,172.09c14.47,12.1,23.48,28.23,27.04,48.39h-46.96c-1.9-9.48-6.17-17.08-12.81-22.77-6.64-5.69-15.3-8.54-25.97-8.54-8.54,0-15.18,2.02-19.92,6.05-4.75,4.04-7.12,9.49-7.12,16.37,0,5.46,1.9,9.85,5.69,13.16,3.79,3.32,8.54,5.93,14.23,7.83,5.69,1.9,13.88,4.15,24.55,6.76,14.94,3.32,27.1,6.82,36.47,10.5,9.37,3.68,17.43,9.49,24.19,17.43,6.76,7.95,10.14,18.68,10.14,32.2,0,16.84-6.58,30.48-19.75,40.91-13.16,10.44-30.9,15.65-53.19,15.65-25.62,0-46.14-5.75-61.55-17.26-15.42-11.5-24.79-27.93-28.11-49.28h48.03c1.18,9.73,5.45,17.38,12.81,22.95,7.35,5.57,16.96,8.36,28.82,8.36,8.54,0,15.06-2.07,19.57-6.22,4.5-4.15,6.76-9.55,6.76-16.19,0-5.69-1.96-10.32-5.87-13.88-3.91-3.56-8.78-6.28-14.59-8.18-5.81-1.9-14.05-4.15-24.73-6.76-14.71-3.32-26.63-6.7-35.76-10.14-9.13-3.44-16.96-8.95-23.48-16.54-6.53-7.59-9.78-18.02-9.78-31.31,0-17.08,6.52-30.95,19.57-41.63,13.04-10.67,31.07-16.01,54.08-16.01s43.17,6.05,57.64,18.14Z"/>
        <path class="cls-17" d="M1901.48,310.49v43.05h-26.33c-22.06,0-38.96-5.34-50.7-16.01-11.74-10.67-17.61-28.46-17.61-53.37v-85.39h-27.4v-42.34h27.4v-48.74h50.17v48.74h44.12v42.34h-44.12v86.1c0,9.49,1.9,16.13,5.69,19.92,3.79,3.8,10.2,5.69,19.21,5.69h19.57Z"/>
      </g>
    </g>
  </g>
</svg>